
******** Shanghai.Kiss.2007.DVDRiP.XViD.OPTIONAL.NORDIC-Zen_Bud *******

Format                           : AVI
File size                        : 711 MiB
Duration                         : 1h 41mn
Overall bit rate                 : 976 Kbps

Video

Format                           : MPEG-4 Visual
Codec ID/Hint                    : XviD
Duration                         : 1h 41mn
Bit rate                         : 835 Kbps
Width                            : 720 pixels
Height                           : 576 pixels
Display aspect ratio             : 16:9
Stream size                      : 609 MiB (86%)
Writing library                  : XviD 1.1.2 (UTC 2006-11-01)

Audio

Format                           : MPEG Audio
Codec ID/Hint                    : MP3
Duration                         : 1h 41mn
Bit rate                         : 128 Kbps
Channel(s)                       : 2 channels
Sampling rate                    : 48.0 KHz
Stream size                      : 93.3 MiB (13%)
Language                         : English

Text #1
Language                         : Danish

Text #2
Language                         : Norwegian

Text #3
Language                         : Swedish

Text #4
Language                         : Finnish

